External Loads File
version=1
nRows=63
nColumns=13
Range=5.000000e-03-10 seconds
endheader
time 	forceRightX 	forceRightY 	forceRightZ 	pointRightX 	pointRightY 	pointRightZ 	forceLeftX 	forceLeftY 	forceLeftZ 	pointLeftX 	pointLeftY 	pointLeftZ 		
0.005000 30.765320 199.973697 -0.000000 0.167504 0.170787 -0.165074 5.768285 136.197993 -0.000000 0.316279 0.473839 -0.415603
0.010000 31.156939 200.104298 -0.000000 0.167573 0.170749 -0.165073 5.276190 134.705946 -0.000000 0.316209 0.473896 -0.415580
0.015000 31.483053 200.159293 -0.000000 0.167673 0.170707 -0.165083 4.835835 133.344967 -0.000000 0.316133 0.473938 -0.415594
0.020000 31.751131 200.102622 -0.000000 0.167758 0.170641 -0.165082 4.518338 132.229607 -0.000000 0.316065 0.473897 -0.415581
0.025000 31.817637 199.906568 -0.000000 0.167891 0.170530 -0.165161 4.270502 131.424186 -0.000000 0.315970 0.473988 -0.415608
0.030000 31.812087 199.511673 -0.000000 0.167986 0.170504 -0.165159 4.197287 130.940200 -0.000000 0.315875 0.473989 -0.415599
0.035000 31.639941 198.926148 -0.000000 0.168114 0.170457 -0.165169 4.221624 130.733722 -0.000000 0.315804 0.474036 -0.415601
0.040000 31.344992 198.180122 -0.000000 0.168209 0.170407 -0.165171 4.328326 130.726369 -0.000000 0.315719 0.474081 -0.415598
0.045000 30.954432 197.348304 -0.000000 0.168315 0.170360 -0.165169 4.483475 130.862139 -0.000000 0.315642 0.474120 -0.415604
0.050000 30.530292 196.514388 -0.000000 0.168427 0.170335 -0.165160 4.671601 131.097775 -0.000000 0.315570 0.474168 -0.415602
0.055000 30.117476 195.742802 -0.000000 0.168529 0.170289 -0.165159 4.874422 131.389313 -0.000000 0.315484 0.474206 -0.415591
0.060000 29.759954 195.062027 -0.000000 0.168627 0.170264 -0.165153 5.108583 131.717854 -0.000000 0.315411 0.474257 -0.415600
0.065000 29.457290 194.481249 -0.000000 0.168713 0.170221 -0.165141 5.381389 132.080512 -0.000000 0.315350 0.474318 -0.415594
0.070000 29.205535 193.996486 -0.000000 0.168806 0.170174 -0.165145 5.683257 132.458668 -0.000000 0.315281 0.474342 -0.415588
0.075000 29.024907 193.600218 -0.000000 0.168891 0.170153 -0.165132 6.003847 132.828100 -0.000000 0.315224 0.474381 -0.415580
0.080000 28.913126 193.301994 -0.000000 0.168971 0.170116 -0.165140 6.310209 133.167341 -0.000000 0.315164 0.474422 -0.415566
0.085000 28.894422 193.115079 -0.000000 0.169052 0.170086 -0.165132 6.595004 133.453153 -0.000000 0.315111 0.474442 -0.415565
0.090000 28.958187 193.045608 -0.000000 0.169118 0.170060 -0.165132 6.852081 133.678986 -0.000000 0.315066 0.474473 -0.415559
0.095000 29.088793 193.080711 -0.000000 0.169158 0.170040 -0.165137 7.085442 133.843874 -0.000000 0.315024 0.474494 -0.415555
0.100000 29.234620 193.204004 -0.000000 0.169214 0.170039 -0.165122 7.268895 133.936509 -0.000000 0.314989 0.474531 -0.415559
0.105000 29.396605 193.391835 -0.000000 0.169233 0.170010 -0.165124 7.411145 133.951982 -0.000000 0.314958 0.474547 -0.415546
0.110000 29.553870 193.624400 -0.000000 0.169268 0.169995 -0.165130 7.496873 133.886494 -0.000000 0.314952 0.474556 -0.415552
0.115000 29.707474 193.880454 -0.000000 0.169282 0.169989 -0.165128 7.505349 133.712732 -0.000000 0.314940 0.474557 -0.415554
0.120000 29.854093 194.143266 -0.000000 0.169297 0.169999 -0.165134 7.412382 133.414288 -0.000000 0.314929 0.474565 -0.415547
0.125000 30.000692 194.396643 -0.000000 0.169301 0.169984 -0.165138 7.218173 133.008065 -0.000000 0.314917 0.474573 -0.415563
0.130000 30.174155 194.626891 -0.000000 0.169290 0.169970 -0.165134 6.946664 132.520684 -0.000000 0.314923 0.474571 -0.415551
0.135000 30.357982 194.836509 -0.000000 0.169293 0.169978 -0.165126 6.606177 131.993216 -0.000000 0.314938 0.474571 -0.415559
0.140000 30.539030 195.024911 -0.000000 0.169284 0.169984 -0.165145 6.231741 131.484947 -0.000000 0.314934 0.474566 -0.415563
0.145000 30.708996 195.169536 -0.000000 0.169253 0.169985 -0.165138 5.873491 131.035445 -0.000000 0.314934 0.474558 -0.415558
0.150000 30.818002 195.236219 -0.000000 0.169244 0.169990 -0.165135 5.553651 130.655983 -0.000000 0.314951 0.474548 -0.415567
0.155000 30.842346 195.194951 -0.000000 0.169225 0.169996 -0.165128 5.308771 130.357453 -0.000000 0.314969 0.474539 -0.415555
0.160000 30.762860 195.040153 -0.000000 0.169219 0.170018 -0.165133 5.150951 130.139986 -0.000000 0.314989 0.474529 -0.415564
0.165000 30.604301 194.776737 -0.000000 0.169175 0.170023 -0.165124 5.081068 129.977180 -0.000000 0.315002 0.474517 -0.415569
0.170000 30.377480 194.418960 -0.000000 0.169145 0.170028 -0.165123 5.080929 129.858857 -0.000000 0.315023 0.474509 -0.415577
0.175000 30.118408 193.980507 -0.000000 0.169130 0.170058 -0.165131 5.157058 129.806030 -0.000000 0.315040 0.474479 -0.415571
0.180000 29.848030 193.485488 -0.000000 0.169107 0.170062 -0.165133 5.291594 129.829620 -0.000000 0.315059 0.474463 -0.415586
0.185000 29.619737 192.979372 -0.000000 0.169063 0.170085 -0.165124 5.470353 129.920092 -0.000000 0.315081 0.474438 -0.415584
0.190000 29.433205 192.543710 -0.000000 0.169035 0.170099 -0.165135 5.644879 130.067248 -0.000000 0.315109 0.474437 -0.415587
0.195000 29.347064 192.250087 -0.000000 0.168980 0.170112 -0.165137 5.807835 130.235541 -0.000000 0.315141 0.474422 -0.415592
0.200000 29.337778 192.150231 -0.000000 0.168963 0.170115 -0.165141 5.903407 130.372044 -0.000000 0.315170 0.474399 -0.415591
0.205000 29.434867 192.231665 -0.000000 0.168932 0.170138 -0.165131 5.950872 130.458652 -0.000000 0.315205 0.474385 -0.415593
0.210000 29.600323 192.437373 -0.000000 0.168899 0.170155 -0.165123 5.966862 130.526949 -0.000000 0.315237 0.474368 -0.415588
0.215000 29.811013 192.696362 -0.000000 0.168851 0.170159 -0.165139 5.991698 130.623030 -0.000000 0.315275 0.474350 -0.415594
0.220000 30.034104 192.969451 -0.000000 0.168815 0.170182 -0.165141 6.059860 130.802424 -0.000000 0.315316 0.474338 -0.415590
0.225000 30.255552 193.245531 -0.000000 0.168778 0.170205 -0.165143 6.202911 131.103465 -0.000000 0.315347 0.474320 -0.415594
0.230000 30.491014 193.524988 -0.000000 0.168731 0.170222 -0.165148 6.419983 131.488768 -0.000000 0.315388 0.474296 -0.415593
0.235000 30.723853 193.817501 -0.000000 0.168699 0.170233 -0.165155 6.640663 131.862220 -0.000000 0.315419 0.474276 -0.415594
0.240000 30.973826 194.113466 -0.000000 0.168665 0.170250 -0.165158 6.820156 132.141447 -0.000000 0.315447 0.474246 -0.415594
0.245000 31.222557 194.386508 -0.000000 0.168646 0.170268 -0.165156 6.913755 132.285653 -0.000000 0.315479 0.474234 -0.415609
0.250000 31.477852 194.597041 -0.000000 0.168612 0.170273 -0.165160 6.922041 132.282670 -0.000000 0.315511 0.474191 -0.415612
0.255000 31.690587 194.726913 -0.000000 0.168599 0.170287 -0.165158 6.835776 132.151005 -0.000000 0.315533 0.474179 -0.415614
0.260000 31.866390 194.766138 -0.000000 0.168572 0.170287 -0.165162 6.696314 131.911502 -0.000000 0.315549 0.474168 -0.415618
0.265000 31.961205 194.721446 -0.000000 0.168576 0.170294 -0.165159 6.510187 131.575333 -0.000000 0.315565 0.474167 -0.415617
0.270000 31.974554 194.593484 -0.000000 0.168561 0.170311 -0.165162 6.321353 131.181900 -0.000000 0.315573 0.474145 -0.415613
0.275000 31.846473 194.392273 -0.000000 0.168569 0.170283 -0.165172 6.128593 130.805540 -0.000000 0.315580 0.474144 -0.415614
0.280000 31.626257 194.126418 -0.000000 0.168574 0.170294 -0.165168 5.962726 130.486074 -0.000000 0.315579 0.474152 -0.415607
0.285000 31.336315 193.834137 -0.000000 0.168591 0.170269 -0.165172 5.802387 130.221885 -0.000000 0.315572 0.474140 -0.415614
0.290000 31.034854 193.539441 -0.000000 0.168610 0.170280 -0.165166 5.655546 129.999982 -0.000000 0.315555 0.474150 -0.415609
0.295000 30.740800 193.234311 -0.000000 0.168639 0.170274 -0.165166 5.521560 129.796058 -0.000000 0.315537 0.474162 -0.415621
0.300000 30.468255 192.888105 -0.000000 0.168656 0.170251 -0.165159 5.413603 129.588990 -0.000000 0.315513 0.474173 -0.415625
0.305000 30.186020 192.486967 -0.000000 0.168718 0.170233 -0.165160 5.328791 129.389307 -0.000000 0.315479 0.474206 -0.415624
0.310000 29.949405 192.038986 -0.000000 0.168761 0.170227 -0.165166 5.309985 129.199877 -0.000000 0.315452 0.474231 -0.415630
0.315000 29.751355 191.596487 -0.000000 0.168800 0.170214 -0.165170 5.328783 128.990531 -0.000000 0.315415 0.474257 -0.415625
